<?xml version="1.0" encoding="UTF-8" standalone="no"?>
<!DOCTYPE svg PUBLIC "-//W3C//DTD SVG 1.1//EN" "http://www.w3.org/Graphics/SVG/1.1/DTD/svg11.dtd">
<svg width="100%" height="100%" viewBox="0 0 3000 3000" version="1.1" xmlns="http://www.w3.org/2000/svg" xmlns:xlink="http://www.w3.org/1999/xlink" xml:space="preserve" xmlns:serif="http://www.serif.com/" style="fill-rule:evenodd;clip-rule:evenodd;stroke-linejoin:round;stroke-miterlimit:2;">
    <g id="hedgehog-" serif:id="hedgehog " transform="matrix(-1,0,0,1,2999.744658,-80)">
        <path id="r_e" d="M1072,1172C1068.33,1177.591 1058.575,1200.201 1083.684,1200.524C1127.14,1201.082 1204,1201 1204,1201C1223.213,1201.092 1228.051,1192.112 1220,1175C1206.208,1147.843 1189.603,1123.455 1169,1103C1151.988,1084.781 1137.966,1082.373 1123,1103C1103.119,1124.891 1088.749,1144.49 1072,1172Z" style="fill:white;"/>
        <g id="l_e" transform="matrix(-1,0,0,1,2999.744658,0)">
            <path d="M1072,1172C1068.33,1177.591 1058.575,1200.201 1083.684,1200.524C1127.14,1201.082 1204,1201 1204,1201C1223.213,1201.092 1228.051,1192.112 1220,1175C1206.208,1147.843 1189.603,1123.455 1169,1103C1151.988,1084.781 1137.966,1082.373 1123,1103C1103.119,1124.891 1088.749,1144.49 1072,1172Z" style="fill:white;"/>
        </g>
        <g id="nose" transform="matrix(-6.5,0,0,6.5,11249.744658,-9141)">
            <circle cx="1500" cy="1662" r="8" style="fill:white;"/>
        </g>
        <g id="r_f" transform="matrix(-1,0,0,1,2999.744658,0)">
            <path d="M1277,2067C1277,2067 1218.638,2069.104 1199,2068C1181.61,2067.022 1144.559,2060.052 1156,2037C1171.042,2006.693 1189.338,1986.302 1218,1974C1238.148,1964.847 1259.347,1964.991 1282,1978C1299.293,1993.58 1309.529,2014.339 1309,2043C1307.172,2060.226 1298.027,2066.727 1277,2067Z" style="fill:white;"/>
        </g>
        <path id="l_f" d="M1277,2067C1277,2067 1218.638,2069.104 1199,2068C1181.61,2067.022 1144.559,2060.052 1156,2037C1171.042,2006.693 1189.338,1986.302 1218,1974C1238.148,1964.847 1259.347,1964.991 1282,1978C1299.293,1993.58 1309.529,2014.339 1309,2043C1307.172,2060.226 1298.027,2066.727 1277,2067Z" style="fill:white;"/>
        <path id="r_e1" serif:id="r_e" d="M1294,1447C1296.338,1466.947 1298.713,1548.8 1289,1569C1276.816,1594.338 1247.607,1594.51 1233,1569C1224.053,1553.374 1223.181,1489.233 1228,1450C1234.783,1394.775 1288.972,1404.099 1294,1447Z" style="fill:white;"/>
        <g id="l_e1" serif:id="l_e" transform="matrix(-1,0,0,1,2999.744658,0)">
            <path d="M1294,1447C1296.338,1466.947 1298.713,1548.8 1289,1569C1276.816,1594.338 1247.607,1594.51 1233,1569C1224.053,1553.374 1223.181,1489.233 1228,1450C1234.783,1394.775 1288.972,1404.099 1294,1447Z" style="fill:white;"/>
        </g>
        <g id="head" transform="matrix(-1,0,0,1,2999.744658,0)">
            <path d="M1499.745,2033.997C1412.426,2032.773 1370.809,2003.031 1334.75,1981.021C1290.072,1953.751 1252.489,1933.782 1211,1925C1002.036,1880.766 640.922,1846.365 408.404,1864.129L411,1881L286,1906L283,1894C254.851,1904.833 227.498,1914.858 202,1923C188.895,1927.185 184.058,1913.366 195,1908C219.335,1896.067 250.819,1884.477 278,1876L272,1852L400,1810L402.672,1826.921C506.339,1755.657 595.853,1633.119 677,1505C568.762,1450.186 455.692,1422.53 335,1412.078L335,1432L204,1434L204,1423C175.755,1425.491 143.737,1427.909 119,1429C107.715,1429.498 103.528,1414.914 118,1412C146.446,1406.272 174.763,1402.903 203,1401L203,1376L335,1360L335,1380.367C469.454,1337.531 625.009,1251.501 720,1180C658.669,1098.666 576.278,946.505 468.529,838.628L460,850L352,782L359,768C334.398,753.501 309.735,739.472 285,726C276.468,721.38 286.74,706.283 297,713C321.108,724.529 345.1,736.922 369,750L384,728L505,790L484.82,816.907C651.684,894.631 823.338,951.75 950,975C994.305,919.648 1099.113,762.064 1087.055,596.16L1074,600L1026,480L1043,471C1029.077,446.906 1017.796,422.64 1005,400C997.406,386.211 1014.466,379.448 1020,393C1033.788,415.559 1047.127,439.869 1060,466L1083,459L1142,580L1116.246,587.575C1163.905,663.997 1236.732,759.863 1327,813C1387.583,758.386 1457.575,603.055 1486.534,402L1469,402L1473,274L1491,273C1491,273 1491.318,200.61 1492.895,194.599C1494.269,189.363 1498.64,188.242 1499.745,188.04C1499.794,188.031 1499.837,188.023 1499.872,188.018C1499.908,188.023 1499.951,188.031 1500,188.04C1501.104,188.242 1505.476,189.363 1506.85,194.599C1508.426,200.61 1508.745,273 1508.745,273L1526.745,274L1530.745,402L1513.211,402C1542.169,603.055 1612.161,758.386 1672.745,813C1763.013,759.863 1835.84,663.997 1883.499,587.575L1857.745,580L1916.745,459L1939.745,466C1952.618,439.869 1965.957,415.559 1979.745,393C1985.279,379.448 2002.339,386.211 1994.745,400C1981.948,422.64 1970.667,446.906 1956.745,471L1973.745,480L1925.745,600L1912.69,596.16C1900.632,762.064 2005.44,919.648 2049.745,975C2176.407,951.75 2348.061,894.631 2514.925,816.907L2494.745,790L2615.745,728L2630.745,750C2654.644,736.922 2678.636,724.529 2702.745,713C2713.005,706.283 2723.276,721.38 2714.745,726C2690.009,739.472 2665.346,753.501 2640.745,768L2647.745,782L2539.745,850L2531.215,838.628C2423.467,946.505 2341.076,1098.666 2279.745,1180C2374.735,1251.501 2530.291,1337.531 2664.745,1380.367L2664.745,1360L2796.745,1376L2796.745,1401C2824.981,1402.903 2853.299,1406.272 2881.745,1412C2896.217,1414.914 2892.029,1429.498 2880.745,1429C2856.008,1427.909 2823.99,1425.491 2795.745,1423L2795.745,1434L2664.745,1432L2664.745,1412.078C2544.052,1422.53 2430.982,1450.186 2322.745,1505C2403.892,1633.119 2493.405,1755.657 2597.073,1826.921L2599.745,1810L2727.745,1852L2721.745,1876C2748.926,1884.477 2780.41,1896.067 2804.745,1908C2815.687,1913.366 2810.85,1927.185 2797.745,1923C2772.247,1914.858 2744.894,1904.833 2716.745,1894L2713.745,1906L2588.745,1881L2591.34,1864.129C2358.823,1846.365 1997.709,1880.766 1788.745,1925C1747.256,1933.782 1709.672,1953.751 1664.995,1981.021C1628.936,2003.031 1587.318,2032.773 1500,2033.997L1500,2010.004C1534.114,2010.527 1581.245,2002.785 1613.355,1986.305C1692.744,1945.558 1749.167,1910.847 1816.745,1852C1845.5,1826.96 1876.855,1797.683 1897.97,1765.673C1919.076,1733.675 1929.947,1698.949 1937.745,1655C1949.747,1598.392 1959.422,1542.39 1966.745,1487C1975.072,1429.537 1981.794,1370.543 1980.745,1312C1979.436,1239.032 1986.972,1189.366 1959.745,1148C1942.987,1112.33 1916.852,1074.14 1879.745,1033C1852.214,1005.622 1826.386,1004.464 1802.745,1037C1768.317,1077.076 1733.638,1119.182 1698.745,1163C1674.014,1194.056 1659.357,1191.559 1635.745,1191L1499.872,1190.001L1364,1191C1340.388,1191.559 1325.73,1194.056 1301,1163C1266.107,1119.182 1231.427,1077.076 1197,1037C1173.359,1004.464 1147.53,1005.622 1120,1033C1082.892,1074.14 1056.758,1112.33 1040,1148C1012.772,1189.366 1020.308,1239.032 1019,1312C1017.95,1370.543 1024.672,1429.537 1033,1487C1040.323,1542.39 1049.998,1598.392 1062,1655C1069.798,1698.949 1080.669,1733.675 1101.775,1765.673C1122.89,1797.683 1154.245,1826.96 1183,1852C1250.578,1910.847 1307,1945.558 1386.39,1986.305C1418.499,2002.785 1465.631,2010.527 1499.745,2010.004L1499.745,2033.997Z" style="fill:white;"/>
        </g>
    </g>
    <g id="S" transform="matrix(1,0,0,1,0,-80)">
        <path id="s_shape" d="M1368.241,2221.608C1365.584,2198.433 1359.655,2178.579 1347.305,2176.098C1286.014,2163.787 1234.081,2179.391 1185.908,2195.605C1056.476,2268.895 1016.831,2347.279 1109.385,2416.63C1180.541,2423.352 1254,2426 1254,2426C1616.567,2457.276 1596.871,2668.024 1260,2713C1143.745,2728.521 911.205,2728.743 860,2727C838.558,2726.27 796.322,2724.047 754.467,2721.71L731,2746L674,2736C672.29,2734.443 672.642,2732.351 674,2730L680.827,2717.484C655.983,2716.026 639,2715 639,2715C626.425,2713.028 626.842,2698.422 637,2700C650.374,2702.077 668.803,2703.004 688.722,2703.01L698,2686L776,2682C782.9,2681.905 786.795,2683.636 788,2687L777.99,2697.361C789.043,2695.795 798.222,2693.96 804.374,2691.929C817.767,2687.509 837.132,2690.057 852,2686C1035.198,2686.12 1152.897,2671.401 1235,2660C1239.778,2659.337 1244.734,2658.604 1249.779,2657.816C1343.618,2616.72 1380.965,2556.467 1355.878,2503.408C1344.554,2494.778 1330.004,2486.983 1312.044,2480.414C1289.868,2476.694 1270.313,2474.682 1258,2474C1158.891,2467.386 1084.541,2456.517 1004,2438C943.987,2420.271 920.772,2388.279 937,2341C953.66,2295.947 991.037,2259.161 1040,2227C1121.521,2173.908 1216.028,2138.557 1325,2146C1382.469,2149.925 1387.775,2159.151 1383.099,2221.886C1388.423,2222.11 1393.724,2222.474 1399,2223L1389,2268C1385.728,2269.121 1382.428,2269.939 1379.101,2270.458C1378.395,2279.31 1377.681,2288.808 1377,2299C1376.577,2305.335 1368.513,2304.66 1369,2297C1369.32,2291.963 1369.855,2282.558 1370.078,2271.126C1366.417,2271.103 1362.725,2270.728 1359,2270L1358,2236C1355.152,2235.302 1353.414,2234.209 1352,2233C1351.28,2229.291 1351.302,2225.625 1352,2222C1357.431,2221.763 1362.846,2221.625 1368.241,2221.608ZM1370.009,2516.408C1383.805,2566.446 1355.492,2614.153 1280.108,2652.561C1288.72,2650.915 1297.074,2649.175 1304.723,2647.402C1380.095,2615.073 1407.685,2559.02 1370.009,2516.408ZM1391.504,2500.431C1433.436,2533.506 1436.353,2573.653 1402.458,2613.637C1440.84,2597.012 1462.395,2580.044 1458,2555C1453.742,2530.738 1425.828,2513.016 1391.504,2500.431ZM1128.638,2219.175C1092.49,2237.357 1053.95,2261.96 1023.795,2287.43C1009.89,2319.018 1024.114,2349.083 1067.311,2385.84C1030.198,2332.769 1055.469,2275.433 1128.638,2219.175ZM996.116,2313.769C960.066,2353.391 953.408,2390.485 1017,2404C1031.138,2407.005 1048.181,2409.652 1066.566,2411.97C1020.654,2380.989 992.806,2344.896 996.116,2313.769Z" style="fill:white;"/>
    </g>
    <g id="P" transform="matrix(1,0,0,1,0,-80)">
        <path id="p_shape" d="M1601.216,2764.581C1581.895,2806.055 1562.112,2848.221 1542,2891C1536.914,2905.658 1530.094,2914.887 1521,2917C1510.941,2937.395 1503.184,2950.968 1495,2956C1490.71,2965.309 1485.735,2974.853 1479,2985C1476.516,2988.742 1466.684,2984.298 1470,2977C1473.497,2969.304 1478.615,2961.281 1485,2953C1476.958,2942.767 1487.937,2924.9 1499,2907C1495.003,2897.195 1499.186,2883.265 1508,2867C1609.987,2658.445 1715.227,2451.744 1810.036,2242.539C1757.981,2275.243 1737.604,2311.129 1763,2336C1738.155,2319.857 1743.736,2296.076 1758,2276C1773.369,2257.154 1794.442,2239.131 1819.002,2222.677C1820.003,2220.452 1821.002,2218.226 1822,2216C1833.085,2187.821 1822.371,2171.707 1814,2177C1810.402,2179.275 1792.449,2201.761 1768.952,2195.732C1761.091,2193.715 1754.203,2200.736 1745,2200C1760.696,2176.014 1786.457,2166.337 1815,2164C1842.114,2162.074 1849.9,2175.711 1840,2204C1839.194,2206.303 1838.382,2208.612 1837.565,2210.926C1925.988,2157.979 2048.136,2125.064 2118,2141C2190.421,2157.519 2231.415,2239.371 2208,2305C2179.944,2383.636 2116.053,2459.774 2030,2515C1905.581,2594.847 1795.754,2625.57 1724.461,2625.155C1671.994,2670.463 1635.185,2711.936 1601.216,2764.581ZM1625.724,2711.794C1654.777,2678.723 1683.413,2649.765 1711.652,2624.723C1694.975,2623.666 1680.82,2620.718 1669.568,2616.161C1655.321,2647.558 1640.685,2679.449 1625.724,2711.794ZM1688,2573C1709.398,2570.358 1729.914,2564.045 1743,2557C1725.33,2556.423 1711.146,2547.214 1713,2516C1705.163,2537.709 1698.11,2552.573 1688,2573ZM1743.232,2464.019C1728.959,2519.48 1741.248,2543.293 1793.528,2536.339L1795.096,2535.653C1766.061,2526.705 1749.278,2497.301 1748.917,2449.222L1743.232,2464.019ZM1757.919,2432.318C1752.928,2481.215 1776.807,2523.861 1806.472,2530.563C1824.569,2522.305 1843.086,2513.098 1862,2503C1940.376,2461.154 2008,2418.467 2069,2372C2073.337,2369.166 2078.379,2367.394 2085,2368C2092.259,2368.664 2142.563,2314.996 2158,2277C2171.314,2244.231 2148.269,2169.202 2039,2211C1900.018,2264.163 1823.905,2312.016 1773,2404L1757.919,2432.318ZM1830.483,2230.735C1820.02,2259.648 1808.733,2289.369 1796.708,2319.847C1852.148,2245.749 1920.444,2202.237 1996,2176C1929.253,2188.501 1872.439,2208.399 1830.483,2230.735Z" style="fill:white;"/>
    </g>
</svg>
